{"title":"The.36th.Chamber.Of.Shaolin.REMUX.1978.1080p.DTS.AVC.iSAAC","uid":11401282,"size":25016894440,"categoryP":"video","categoryS":"hd___movies","magnet":"?xt=urn:btih:9a1f0d317ec33f7b869eae98155616e48de336bb&amp;dn=The.36th.Chamber.Of.Shaolin.REMUX.1978.1080p.DTS.AVC.iSAAC&amp;tr=udp%3A%2F%2Ftracker.openbittorrent.com%3A80&amp;tr=udp%3A%2F%2Fopen.demonii.com%3A1337&amp;tr=udp%3A%2F%2Ftracker.coppersurfer.tk%3A6969&amp;tr=udp%3A%2F%2Fexodus.desync.com%3A6969","seeders":0,"leechers":3,"uploader":"Isaac09","files":-1,"time":1415416207,"description":"The.36th.Chamber.Of.Shaolin.REMUX.1978.1080p.DTS.AVC.iSAAC\n\nDirector: Chia-Liang Liu\nWriters: Kuang Ni\nStars: Chia-Hui Liu, Lieh Lo, Chia Yung Liu\n &lt;a href=&quot;\nhttp://www.imdb.com/title/tt0078243/&quot; rel=&quot;nofollow&quot; target=&quot;_NEW&quot;&gt;\nhttp://www.imdb.com/title/tt0078243/&lt;/a&gt;\n\nThe anti-Ching patriots, under the guidance of Ho Kuang-han, have secretly set up their base in Canton, disguised as school masters. During a brutal Manchu attack, Lui manages to escape and devotes himself to learning the martial arts in order to seek revenge. In a short period of time he masters the deadly use of his fists, feet and palms, along with such weapons as swords, sticks, and lances. With his learning complete, he takes on the Manchus.\n\nRUNTIME.......: 1h 56m\nVIDEO CODEC...: AVC, High @4.1\nFRAMERATE.....: 23.976 fps\nBITRATE.......: 28.7 Mbps\nRESOLUTION....: 1920x1080\nSOURCE........: Russian Blu-Ray\nGENRE.........: Action, Adventure, Drama\n\nAUDIO ........: Chinese DTS 2.0 @ 768 Kbps\nSUBTITLES.....: English\n\n\nFormat                                   : Matroska\nFormat version                           : Version 4 / Version 2\nFile size                                : 23.3 GiB\nDuration                                 : 1h 56mn\nOverall bit rate mode                    : Variable\nOverall bit rate                         : 28.7 Mbps\nMovie name                               : =kinozal.tv-HD=\nEncoded date                             : UTC 2014-11-05 22:37:55\nWriting application                      : mkvmerge v7.2.0 ('On Every Street') 64bit built on Sep 13 2014 15:52:10\nWriting library                          : libebml v1.3.0 + libmatroska v1.4.1\nDURATION                                 : 01:56:08.576000000\nNUMBER_OF_FRAMES                         : 653304\nNUMBER_OF_BYTES                          : 668983296\n_STATISTICS_WRITING_APP                  : mkvmerge v7.2.0 ('On Every Street') 64bit built on Sep 13 2014 15:52:10\n_STATISTICS_WRITING_DATE_UTC             : 2014-11-05 22:37:55\n_STATISTICS_TAGS                         : BPS DURATION NUMBER_OF_FRAMES NUMBER_OF_BYTES\n\nVideo\nID                                       : 2\nFormat                                   : AVC\nFormat/Info                              : Advanced Video Codec\nFormat profile                           : &lt;a class=&quot;__cf_email__&quot; href=&quot;/cdn-cgi/l/email-protection&quot; data-cfemail=&quot;e7af8e808fa7abd3c9d6&quot;&gt;[email&amp;#160;protected]&lt;/a&gt;&lt;script cf-hash='f9e31' type=&quot;text/javascript&quot;&gt;\n/* &lt;![CDATA[ */!function(){try{var t=&quot;currentScript&quot;in document?document.currentScript:function(){for(var t=document.getElementsByTagName(&quot;script&quot;),e=t.length;e--;)if(t[e].getAttribute(&quot;cf-hash&quot;))return t[e]}();if(t&amp;&amp;t.previousSibling){var e,r,n,i,c=t.previousSibling,a=c.getAttribute(&quot;data-cfemail&quot;);if(a){for(e=&quot;&quot;,r=parseInt(a.substr(0,2),16),n=2;a.length-n;n+=2)i=parseInt(a.substr(n,2),16)^r,e+=String.fromCharCode(i);e=document.createTextNode(e),c.parentNode.replaceChild(e,c)}}}catch(u){}}();/* ]]&gt; */&lt;/script&gt;\nFormat settings, CABAC                   : Yes\nFormat settings, ReFrames                : 2 frames\nCodec ID                                 : V_MPEG4/ISO/AVC\nDuration                                 : 1h 56mn\nBit rate mode                            : Variable\nBit rate                                 : 27.4 Mbps\nWidth                                    : 1 920 pixels\nHeight                                   : 1 080 pixels\nDisplay aspect ratio                     : 16:9\nFrame rate mode                          : Constant\nFrame rate                               : 23.976 fps\nColor space                              : YUV\nChroma subsampling                       : 4:2:0\nBit depth                                : 8 bits\nScan type                                : Progressive\nBits/(Pixel*Frame)                       : 0.551\nStream size                              : 22.2 GiB (95%)\nDefault                                  : Yes\nForced                                   : No\n\nAudio\nID                                       : 3\nFormat                                   : DTS\nFormat/Info                              : Digital Theater Systems\nMode                                     : 16\nFormat settings, Endianness              : Big\nCodec ID                                 : A_DTS\nDuration                                 : 1h 56mn\nBit rate mode                            : Constant\nBit rate                                 : 768 Kbps\nChannel(s)                               : 2 channels\nChannel positions                        : Front: L R\nSampling rate                            : 48.0 KHz\nBit depth                                : 16 bits\nCompression mode                         : Lossy\nStream size                              : 638 MiB (3%)\nLanguage                                 : Chinese\nDefault                                  : Yes\nForced                                   : No\n\nText\nID                                       : 1\nFormat                                   : UTF-8\nCodec ID                                 : S_TEXT/UTF8\nCodec ID/Info                            : UTF-8 Plain Text\nLanguage                                 : English\nDefault                                  : Yes\nForced                                   : No","torrent":{"xt":"urn:btih:9a1f0d317ec33f7b869eae98155616e48de336bb","amp;dn":"The.36th.Chamber.Of.Shaolin.REMUX.1978.1080p.DTS.AVC.iSAAC","amp;tr":["udp%3A%2F%2Ftracker.openbittorrent.com%3A80","udp%3A%2F%2Fopen.demonii.com%3A1337","udp%3A%2F%2Ftracker.coppersurfer.tk%3A6969","udp%3A%2F%2Fexodus.desync.com%3A6969"],"infoHash":"9a1f0d317ec33f7b869eae98155616e48de336bb","infoHashBuffer":{"type":"Buffer","data":[154,31,13,49,126,195,63,123,134,158,174,152,21,86,22,228,141,227,54,187]},"announce":[],"urlList":[]}}